<svg width="60" height="60" viewBox="0 0 60 60" fill="none" xmlns="http://www.w3.org/2000/svg">
<g clip-path="url(#clip0_73_1534)">
<path d="M45.5002 0H5.50002C2.74001 0.00325001 0.50325 2.24001 0.5 5.00002V37.0002C0.49975 39.2808 2.04276 41.2724 4.25102 41.8422L4.75102 39.9062C3.42564 39.5644 2.49951 38.3689 2.50001 37.0002V5.00002C2.50001 3.34314 3.84314 2.00001 5.50002 2.00001H45.5002C47.1571 2.00001 48.5002 3.34314 48.5002 5.00002V6.00002H50.5002V5.00002C50.497 2.24001 48.2602 0.00325001 45.5002 0Z" fill="#FF2C2C"/>
<path d="M6.50001 4H4.5V6.00001H6.50001V4Z" fill="#FF2C2C"/>
<path d="M10.5 4H8.5V6.00001H10.5V4Z" fill="#FF2C2C"/>
<path d="M14.5 4H12.5V6.00001H14.5V4Z" fill="#FF2C2C"/>
<path d="M59.2072 55.2933L49.7222 45.8082C50.2204 44.9189 50.6189 43.9771 50.9102 43.0002H52.5002V41.0002H51.3402C51.7168 38.5796 51.4264 36.1021 50.5002 33.8342V24.0002H48.5002V30.3682C47.9063 29.6096 47.2362 28.9139 46.5001 28.2922V20.0001H44.5001V26.8942C43.86 26.5232 43.1911 26.2038 42.5001 25.9392V16.0001H40.5001V25.3322C39.8411 25.1899 39.1727 25.096 38.5001 25.0512V18.0001H36.5001V25.0512C35.8275 25.096 35.1591 25.1899 34.5001 25.3322V22.0001H32.5001V25.9392C31.8091 26.2038 31.1403 26.5232 30.5001 26.8942V21.0001H28.5001V28.2922C27.7641 28.9139 27.0939 29.6096 26.5001 30.3682V23.0002H24.5001V33.8342C23.5738 36.1021 23.2834 38.5796 23.6601 41.0002H10.5V43.0002H24.0901C26.2833 50.398 34.0583 54.617 41.456 52.4238C42.9138 51.9915 44.2913 51.3243 45.5341 50.4483L54.7932 59.7073C55.1837 60.0977 55.8167 60.0977 56.2072 59.7073L59.2072 56.7073C59.5976 56.3168 59.5976 55.6838 59.2072 55.2933ZM37.5001 51.0003C30.8756 50.9931 25.5072 45.6247 25.5001 39.0002C25.5001 32.3728 30.8727 27.0002 37.5001 27.0002C44.1275 27.0002 49.5002 32.3728 49.5002 39.0002C49.5002 45.6276 44.1275 51.0003 37.5001 51.0003ZM55.5002 57.5863L47.0882 49.1743C47.6332 48.6593 48.1364 48.1019 48.5932 47.5073L57.0862 56.0003L55.5002 57.5863Z" fill="#FF2C2C"/>
<path d="M37.5 29.0001C31.9771 29.0001 27.5 33.4773 27.5 39.0002C27.5 44.5231 31.9771 49.0002 37.5 49.0002C43.0229 49.0002 47.5001 44.5231 47.5001 39.0002C47.4941 33.4798 43.0204 29.0061 37.5 29.0001ZM37.5 47.0002C34.6455 46.9966 32.0093 45.4722 30.582 43.0002H44.4181C42.9908 45.4722 40.3546 46.9966 37.5 47.0002ZM29.763 41.0002C28.9584 37.9552 30.0328 34.7226 32.5 32.7651V39.0002H34.5V31.5891C35.1413 31.3296 35.8137 31.1549 36.5 31.0691V39.0002H38.5V31.0691C39.1864 31.1549 39.8588 31.3296 40.5001 31.5891V39.0002H42.5001V32.7651C44.9673 34.7226 46.0417 37.9552 45.2371 41.0002H29.763Z" fill="#FF2C2C"/>
<path d="M51.5002 8H11.5C8.74001 8.00325 6.50325 10.24 6.5 13V45.0002C6.50325 47.7602 8.74001 49.9969 11.5 50.0002H24.5001V48.0002H11.5C9.84314 48.0002 8.50001 46.657 8.50001 45.0002V13C8.50001 11.3431 9.84314 10 11.5 10H51.5002C53.1571 10 54.5002 11.3431 54.5002 13V45.0002C54.5001 45.7308 54.2334 46.4362 53.7502 46.9842L55.2502 48.3072C56.0562 47.3942 56.5007 46.218 56.5002 45.0002V13C56.497 10.24 54.2602 8.00325 51.5002 8Z" fill="#FF2C2C"/>
<path d="M12.5 12H10.5V14H12.5V12Z" fill="#FF2C2C"/>
<path d="M16.5 12H14.5V14H16.5V12Z" fill="#FF2C2C"/>
<path d="M20.5 12H18.5V14H20.5V12Z" fill="#FF2C2C"/>
<path d="M14.5 33.0001H12.5V39.0001H14.5V33.0001Z" fill="#FF2C2C"/>
<path d="M18.5 27.0001H16.5V39.0002H18.5V27.0001Z" fill="#FF2C2C"/>
<path d="M22.5 30.0001H20.5V39.0002H22.5V30.0001Z" fill="#FF2C2C"/>
</g>
<defs>
<clipPath id="clip0_73_1534">
<rect width="60" height="60" fill="white"/>
</clipPath>
</defs>
</svg>
