<svg width="60" height="60" viewBox="0 0 60 60" fill="none" xmlns="http://www.w3.org/2000/svg">
<path d="M11.25 22.5V35.625H13.125V22.5C13.1282 19.7659 14.2158 17.1447 16.149 15.2115C18.0823 13.2782 20.7034 12.1907 23.4375 12.1875H30.7162L26.7684 14.1609L27.6066 15.839L35.1066 12.089C35.2626 12.0113 35.3938 11.8916 35.4855 11.7433C35.5773 11.5951 35.6259 11.4243 35.6259 11.25C35.6259 11.0756 35.5773 10.9048 35.4855 10.7566C35.3938 10.6083 35.2626 10.4886 35.1066 10.4109L27.6066 6.66089L26.7684 8.3437L30.7162 10.3125H23.4375C20.2063 10.3162 17.1085 11.6014 14.8237 13.8862C12.539 16.171 11.2537 19.2688 11.25 22.5Z" fill="#FF2C2C"/>
<path d="M38.9419 23.1908C38.3293 22.3879 37.612 21.6706 36.8091 21.058C36.6889 20.9668 36.5487 20.9058 36.4001 20.88C36.2515 20.8543 36.0988 20.8645 35.955 20.9099L34.7972 21.2849C34.1556 20.9293 33.4764 20.6463 32.7722 20.4412L32.2153 19.3612C32.1461 19.2269 32.0456 19.1114 31.9222 19.0244C31.7988 18.9374 31.6562 18.8815 31.5066 18.8615C30.5079 18.7096 29.4921 18.7096 28.4934 18.8615C28.3438 18.8815 28.2012 18.9374 28.0778 19.0244C27.9544 19.1114 27.8539 19.2269 27.7847 19.3612L27.2278 20.4374C26.5236 20.6425 25.8444 20.9255 25.2028 21.2812L24.045 20.9062C23.9012 20.8609 23.7486 20.8507 23.6 20.8765C23.4514 20.9023 23.3112 20.9632 23.1909 21.0543C22.388 21.6669 21.6707 22.3842 21.0581 23.1871C20.9665 23.307 20.9052 23.4473 20.8794 23.596C20.8536 23.7447 20.8641 23.8974 20.91 24.0412L21.285 25.199C20.9294 25.8405 20.6464 26.5197 20.4413 27.224L19.3613 27.7808C19.227 27.85 19.1115 27.9506 19.0245 28.074C18.9375 28.1974 18.8816 28.3399 18.8616 28.4896C18.7128 29.4885 18.7128 30.5038 18.8616 31.5027C18.8816 31.6524 18.9375 31.7949 19.0245 31.9183C19.1115 32.0417 19.227 32.1423 19.3613 32.2115L20.4413 32.7683C20.6464 33.4726 20.9294 34.1518 21.285 34.7933L20.91 35.9512C20.8641 36.0949 20.8536 36.2476 20.8794 36.3963C20.9052 36.545 20.9665 36.6853 21.0581 36.8052C21.6707 37.6081 22.388 38.3254 23.1909 38.938C23.3109 39.0296 23.4511 39.0909 23.5998 39.1167C23.7485 39.1425 23.9012 39.132 24.045 39.0862L25.2028 38.7158C25.8446 39.0698 26.5238 39.3513 27.2278 39.5549L27.7847 40.6349C27.8539 40.7691 27.9544 40.8846 28.0778 40.9716C28.2012 41.0586 28.3438 41.1145 28.4934 41.1346C29.4923 41.2833 30.5077 41.2833 31.5066 41.1346C31.6562 41.1145 31.7988 41.0586 31.9222 40.9716C32.0456 40.8846 32.1461 40.7691 32.2153 40.6349L32.7722 39.5549C33.4763 39.3513 34.1554 39.0698 34.7972 38.7158L35.955 39.0862C36.0988 39.132 36.2515 39.1425 36.4002 39.1167C36.5489 39.0909 36.6891 39.0296 36.8091 38.938C37.612 38.3254 38.3293 37.6081 38.9419 36.8052C39.0335 36.6853 39.0948 36.545 39.1206 36.3963C39.1464 36.2476 39.1359 36.0949 39.09 35.9512L38.7188 34.7971C39.0728 34.1553 39.3542 33.4762 39.5578 32.7721L40.6378 32.2152C40.772 32.146 40.8875 32.0455 40.9745 31.9221C41.0615 31.7987 41.1174 31.6561 41.1375 31.5065C41.2863 30.5076 41.2863 29.4922 41.1375 28.4933C41.1174 28.3437 41.0615 28.2011 40.9745 28.0777C40.8875 27.9543 40.772 27.8538 40.6378 27.7846L39.5625 27.2277C39.3589 26.5237 39.0774 25.8445 38.7234 25.2027L39.0938 24.0449C39.1391 23.9008 39.149 23.748 39.1225 23.5993C39.0961 23.4505 39.0341 23.3104 38.9419 23.1908ZM39.3356 29.2218C39.3619 29.503 39.375 29.7562 39.375 29.9999C39.375 30.2437 39.3619 30.4968 39.3356 30.778L38.3306 31.2955C38.2113 31.3572 38.1066 31.4437 38.0236 31.5493C37.9406 31.655 37.8813 31.7772 37.8497 31.9077C37.6535 32.716 37.3332 33.4889 36.9 34.199C36.8294 34.3135 36.7845 34.4419 36.7683 34.5754C36.7521 34.7089 36.7651 34.8444 36.8063 34.9724L37.1494 36.0458C36.8128 36.4443 36.4434 36.8137 36.045 37.1502L34.9688 36.8071C34.8406 36.7664 34.7053 36.7536 34.5718 36.7698C34.4384 36.786 34.31 36.8307 34.1953 36.9008C33.4853 37.334 32.7123 37.6544 31.9041 37.8505C31.7735 37.8822 31.6513 37.9415 31.5457 38.0244C31.4401 38.1074 31.3535 38.2121 31.2919 38.3315L30.7744 39.3365C30.257 39.3899 29.7355 39.3899 29.2181 39.3365L28.7006 38.3315C28.639 38.2121 28.5524 38.1074 28.4468 38.0244C28.3412 37.9415 28.219 37.8822 28.0884 37.8505C27.2802 37.6544 26.5072 37.334 25.7972 36.9008C25.6825 36.8307 25.5541 36.786 25.4207 36.7698C25.2872 36.7536 25.1519 36.7664 25.0238 36.8071L23.9503 37.1502C23.5519 36.8137 23.1825 36.4443 22.8459 36.0458L23.1891 34.9724C23.2302 34.8444 23.2432 34.7089 23.227 34.5754C23.2108 34.4419 23.1659 34.3135 23.0953 34.199C22.6621 33.4889 22.3418 32.716 22.1456 31.9077C22.114 31.7772 22.0547 31.655 21.9717 31.5493C21.8887 31.4437 21.784 31.3572 21.6647 31.2955L20.6597 30.778C20.6334 30.4968 20.6203 30.2437 20.6203 29.9999C20.6203 29.7562 20.6334 29.503 20.6597 29.2218L21.6647 28.7043C21.7841 28.6425 21.8889 28.5558 21.9719 28.4501C22.0549 28.3443 22.1141 28.2219 22.1456 28.0912C22.3419 27.2832 22.6623 26.5106 23.0953 25.8008C23.1659 25.6863 23.2108 25.5579 23.227 25.4244C23.2432 25.2909 23.2302 25.1554 23.1891 25.0274L22.8459 23.954C23.1825 23.5556 23.5519 23.1861 23.9503 22.8496L25.0238 23.1927C25.1519 23.2335 25.2872 23.2462 25.4207 23.23C25.5541 23.2138 25.6825 23.1691 25.7972 23.099C26.5072 22.6658 27.2802 22.3454 28.0884 22.1493C28.219 22.1176 28.3412 22.0583 28.4468 21.9754C28.5524 21.8924 28.639 21.7877 28.7006 21.6683L29.2181 20.6633C29.7355 20.6099 30.257 20.6099 30.7744 20.6633L31.2919 21.6683C31.3535 21.7877 31.4401 21.8924 31.5457 21.9754C31.6513 22.0583 31.7735 22.1176 31.9041 22.1493C32.7123 22.3454 33.4853 22.6658 34.1953 23.099C34.31 23.1691 34.4384 23.2138 34.5718 23.23C34.7053 23.2462 34.8406 23.2335 34.9688 23.1927L36.0422 22.8496C36.4406 23.1861 36.81 23.5556 37.1466 23.954L36.8072 25.0312C36.766 25.1592 36.7531 25.2946 36.7693 25.4282C36.7854 25.5617 36.8304 25.6901 36.9009 25.8046C37.3341 26.5146 37.6545 27.2876 37.8506 28.0958C37.8823 28.2264 37.9416 28.3486 38.0245 28.4542C38.1075 28.5598 38.2122 28.6464 38.3316 28.708L39.3356 29.2218Z" fill="#FF2C2C"/>
<path d="M30 24.375C28.8875 24.375 27.7999 24.7049 26.8749 25.323C25.9499 25.9411 25.2289 26.8196 24.8032 27.8474C24.3774 28.8752 24.266 30.0062 24.4831 31.0974C24.7001 32.1885 25.2359 33.1908 26.0225 33.9775C26.8092 34.7641 27.8115 35.2999 28.9026 35.5169C29.9938 35.734 31.1248 35.6226 32.1526 35.1968C33.1804 34.7711 34.0589 34.0501 34.677 33.1251C35.2951 32.2001 35.625 31.1125 35.625 30C35.6235 28.5086 35.0304 27.0787 33.9758 26.0242C32.9213 24.9696 31.4914 24.3765 30 24.375ZM30 33.75C29.2583 33.75 28.5333 33.5301 27.9166 33.118C27.2999 32.706 26.8193 32.1203 26.5355 31.4351C26.2516 30.7498 26.1774 29.9958 26.3221 29.2684C26.4668 28.541 26.8239 27.8728 27.3484 27.3484C27.8728 26.8239 28.541 26.4667 29.2684 26.3221C29.9958 26.1774 30.7498 26.2516 31.4351 26.5355C32.1203 26.8193 32.706 27.2999 33.118 27.9166C33.5301 28.5333 33.75 29.2583 33.75 30C33.75 30.9946 33.3549 31.9484 32.6517 32.6516C31.9484 33.3549 30.9946 33.75 30 33.75Z" fill="#FF2C2C"/>
<path d="M47.8125 1.875C45.7729 1.875 43.7791 2.47982 42.0832 3.61297C40.3873 4.74612 39.0655 6.35671 38.285 8.24108C37.5045 10.1254 37.3002 12.1989 37.6982 14.1994C38.0961 16.1998 39.0782 18.0373 40.5205 19.4795C41.9627 20.9218 43.8002 21.9039 45.8006 22.3018C47.8011 22.6998 49.8746 22.4955 51.7589 21.715C53.6433 20.9345 55.2539 19.6127 56.387 17.9168C57.5202 16.2209 58.125 14.2271 58.125 12.1875C58.1218 9.45344 57.0343 6.83229 55.101 4.89902C53.1677 2.96575 50.5466 1.87823 47.8125 1.875ZM47.8125 20.625C46.1437 20.625 44.5124 20.1301 43.1249 19.203C41.7373 18.2759 40.6559 16.9581 40.0173 15.4164C39.3787 13.8746 39.2116 12.1781 39.5371 10.5414C39.8627 8.90471 40.6663 7.40129 41.8463 6.22129C43.0263 5.04128 44.5297 4.23769 46.1664 3.91212C47.8031 3.58656 49.4996 3.75365 51.0414 4.39227C52.5831 5.03088 53.9009 6.11234 54.828 7.49988C55.7552 8.88742 56.25 10.5187 56.25 12.1875C56.2473 14.4244 55.3574 16.569 53.7757 18.1507C52.194 19.7324 50.0494 20.6223 47.8125 20.625Z" fill="#FF2C2C"/>
<path d="M50.625 9.84375H52.5C52.4329 8.91325 52.0014 8.04679 51.2993 7.43246C50.5972 6.81813 49.6812 6.50552 48.75 6.5625V4.6875H46.875V6.5625C45.9438 6.50552 45.0278 6.81813 44.3257 7.43246C43.6236 8.04679 43.1921 8.91325 43.125 9.84375C43.1921 10.7742 43.6236 11.6407 44.3257 12.255C45.0278 12.8694 45.9438 13.182 46.875 13.125V15.9375C45.8588 15.9375 45 15.2934 45 14.5312H43.125C43.1921 15.4617 43.6236 16.3282 44.3257 16.9425C45.0278 17.5569 45.9438 17.8695 46.875 17.8125V19.6875H48.75V17.8125C49.6812 17.8695 50.5972 17.5569 51.2993 16.9425C52.0014 16.3282 52.4329 15.4617 52.5 14.5312C52.4329 13.6008 52.0014 12.7343 51.2993 12.12C50.5972 11.5056 49.6812 11.193 48.75 11.25V8.4375C49.7663 8.4375 50.625 9.08156 50.625 9.84375ZM50.625 14.5312C50.625 15.2934 49.7663 15.9375 48.75 15.9375V13.125C49.7663 13.125 50.625 13.7691 50.625 14.5312ZM46.875 11.25C45.8588 11.25 45 10.6059 45 9.84375C45 9.08156 45.8588 8.4375 46.875 8.4375V11.25Z" fill="#FF2C2C"/>
<path d="M2.44312 54.0308L11.8181 58.049C11.9348 58.099 12.0605 58.1248 12.1875 58.1248C12.3145 58.1248 12.4402 58.099 12.5569 58.049L21.9319 54.0308C22.1005 53.9586 22.2442 53.8384 22.3452 53.6853C22.4461 53.5321 22.5 53.3527 22.5 53.1693V42.4555C22.5 42.2721 22.4461 42.0927 22.3452 41.9395C22.2442 41.7864 22.1005 41.6662 21.9319 41.594L12.5569 37.5758C12.4402 37.5258 12.3145 37.5 12.1875 37.5C12.0605 37.5 11.9348 37.5258 11.8181 37.5758L2.44312 41.594C2.27452 41.6662 2.13083 41.7864 2.02984 41.9395C1.92886 42.0927 1.87502 42.2721 1.875 42.4555V53.1693C1.87502 53.3527 1.92886 53.5321 2.02984 53.6853C2.13083 53.8384 2.27452 53.9586 2.44312 54.0308ZM3.75 43.8749L11.25 47.0896V55.7643L3.75 52.5515V43.8749ZM13.125 55.7661V47.0915L20.625 43.8749V52.5496L13.125 55.7661ZM12.1875 39.4536L19.1831 42.4536L12.1875 45.4527L5.19187 42.4527L12.1875 39.4536Z" fill="#FF2C2C"/>
<path d="M48.7499 37.5V24.375H46.8749V37.5C46.8717 40.2341 45.7841 42.8552 43.8509 44.7885C41.9176 46.7217 39.2965 47.8093 36.5624 47.8125H29.2836L33.2315 45.8438L32.3933 44.1656L24.8933 47.9156C24.7373 47.9934 24.6061 48.1131 24.5144 48.2613C24.4226 48.4095 24.374 48.5804 24.374 48.7547C24.374 48.929 24.4226 49.0999 24.5144 49.2481C24.6061 49.3963 24.7373 49.516 24.8933 49.5938L32.3933 53.3438L33.2315 51.6656L29.2836 49.6875H36.5624C39.7936 49.6838 42.8914 48.3985 45.1762 46.1138C47.4609 43.829 48.7462 40.7312 48.7499 37.5Z" fill="#FF2C2C"/>
</svg>
