<svg width="60" height="60" viewBox="0 0 60 60" fill="none" xmlns="http://www.w3.org/2000/svg">
<g clip-path="url(#clip0_73_1589)">
<path d="M58.2061 19.4451V8.79651C58.8544 8.17273 59.2589 7.29733 59.2589 6.32878C59.2589 4.43925 57.7218 2.9021 55.8322 2.9021C54.8637 2.9021 53.9883 3.30675 53.3645 3.95491H27.1895C25.8805 3.95491 24.8156 5.0198 24.8156 6.32878C24.8156 7.63776 25.8805 8.70265 27.1895 8.70265H27.3272V16.5918H26.4001C25.5923 16.5918 24.9353 17.2489 24.9353 18.0567V21.5491C24.9353 22.3569 25.5923 23.0139 26.4001 23.0139H33.5999C34.4077 23.0139 35.0647 22.3569 35.0647 21.5491V18.0567C35.0647 17.2489 34.4077 16.5918 33.5999 16.5918H32.6728V8.70265H42.7734C43.2589 8.70265 43.6523 8.30925 43.6523 7.82374C43.6523 7.33823 43.2589 6.94483 42.7734 6.94483H27.1896C26.85 6.94483 26.5736 6.66851 26.5736 6.32878C26.5736 5.98905 26.8499 5.71272 27.1896 5.71272H52.4622C52.4257 5.91276 52.4057 6.11843 52.4057 6.32878C52.4057 6.53925 52.4258 6.7448 52.4624 6.94483H46.875C46.3895 6.94483 45.9961 7.33823 45.9961 7.82374C45.9961 8.30925 46.3895 8.70265 46.875 8.70265H53.3654C53.396 8.7344 53.4266 8.76605 53.4584 8.79651V19.4451C52.4487 19.5721 51.6645 20.4344 51.6645 21.478V27.4749H41.227C40.5485 27.4749 39.9966 28.0269 39.9966 28.7054V39.5539H37.1575V28.7054C37.1575 28.0269 36.6055 27.4749 35.927 27.4749H24.0729C23.3944 27.4749 22.8424 28.0269 22.8424 28.7054V39.5539H20.0033V35.6251C20.0033 35.1396 19.6099 34.7462 19.1244 34.7462C18.6389 34.7462 18.2455 35.1396 18.2455 35.6251V39.5539H7.44598V29.2327H18.2455V31.5235C18.2455 32.009 18.6389 32.4024 19.1244 32.4024C19.6099 32.4024 20.0033 32.009 20.0033 31.5235V28.7054C20.0033 28.0269 19.4514 27.4749 18.7729 27.4749H6.91863C6.24012 27.4749 5.68816 28.0269 5.68816 28.7054V39.579C2.50582 39.8548 0 42.5316 0 45.7842V46.5624C0 49.3919 1.89656 51.7852 4.48477 52.542V55.6332C4.48477 56.441 5.14184 57.098 5.94961 57.098H41.1328C41.6183 57.098 42.0117 56.7046 42.0117 56.2191C42.0117 55.7336 41.6183 55.3402 41.1328 55.3402H6.24258V52.7927H53.7574V55.3402H45.2344C44.7489 55.3402 44.3555 55.7336 44.3555 56.2191C44.3555 56.7046 44.7489 57.098 45.2344 57.098H54.0504C54.8582 57.098 55.5152 56.441 55.5152 55.6332V52.542C58.1034 51.7852 60 49.3919 60 46.5624V21.478C60 20.4344 59.2158 19.5721 58.2061 19.4451ZM33.3069 21.2561H26.6931V18.3496H33.3069V21.2561ZM30.915 16.5918H29.0851V8.70265H30.915V16.5918ZM56.4483 19.4272H55.2162V9.69898C55.4162 9.73542 55.6219 9.75546 55.8322 9.75546C56.0426 9.75546 56.2482 9.73542 56.4483 9.69898V19.4272ZM57.5012 6.32878C57.5012 7.24905 56.7525 7.99765 55.8323 7.99765C54.9122 7.99765 54.1635 7.24894 54.1635 6.32878C54.1635 5.40862 54.9122 4.65991 55.8323 4.65991C56.7525 4.65991 57.5012 5.40851 57.5012 6.32878ZM46.1271 29.2327H48.1813V32.9801H46.1271V29.2327ZM41.7545 29.2327H44.3693V33.5075C44.3693 34.186 44.9213 34.738 45.5998 34.738H48.7086C49.3871 34.738 49.9391 34.186 49.9391 33.5075V29.2327H52.5539V39.5539H41.7544V29.2327H41.7545ZM28.9729 29.2327H31.027V32.9801H28.9729V29.2327ZM24.6002 29.2327H27.215V33.5075C27.215 34.186 27.767 34.738 28.4455 34.738H31.5544C32.2329 34.738 32.7848 34.186 32.7848 33.5075V29.2327H35.3996V39.5539H24.6001L24.6002 29.2327ZM58.2422 46.5624C58.2422 49.0285 56.2358 51.0349 53.7697 51.0349H6.23027C3.76418 51.0349 1.75781 49.0285 1.75781 46.5624V45.7842C1.75781 43.3181 3.76418 41.3117 6.23027 41.3117H53.7697C56.2358 41.3117 58.2422 43.3181 58.2422 45.7842V46.5624ZM58.2422 41.4543C57.2269 40.4066 55.8489 39.7122 54.3118 39.579V28.7054C54.3118 28.1452 53.9353 27.6724 53.4224 27.524V21.478C53.4224 21.3164 53.5537 21.185 53.7154 21.185H57.9492C58.1108 21.185 58.2422 21.3164 58.2422 21.478V41.4543Z" fill="#FF2C2C"/>
<path d="M7.01457 42.7466C5.12504 42.7466 3.58789 44.2837 3.58789 46.1733C3.58789 48.0628 5.12504 49.5999 7.01457 49.5999C8.9041 49.5999 10.4412 48.0628 10.4412 46.1733C10.4412 44.2837 8.9041 42.7466 7.01457 42.7466ZM7.01457 47.8421C6.0943 47.8421 5.3457 47.0934 5.3457 46.1733C5.3457 45.2531 6.09441 44.5044 7.01457 44.5044C7.93473 44.5044 8.68344 45.2531 8.68344 46.1733C8.68344 47.0934 7.93484 47.8421 7.01457 47.8421Z" fill="#FF2C2C"/>
<path d="M25.4028 42.7466C23.5132 42.7466 21.9761 44.2837 21.9761 46.1733C21.9761 48.0628 23.5132 49.5999 25.4028 49.5999C27.2923 49.5999 28.8294 48.0628 28.8294 46.1733C28.8294 44.2837 27.2924 42.7466 25.4028 42.7466ZM25.4028 47.8421C24.4825 47.8421 23.7339 47.0934 23.7339 46.1733C23.7339 45.2531 24.4826 44.5044 25.4028 44.5044C26.3229 44.5044 27.0716 45.2531 27.0716 46.1733C27.0716 47.0934 26.323 47.8421 25.4028 47.8421Z" fill="#FF2C2C"/>
<path d="M34.5971 42.7466C32.7076 42.7466 31.1704 44.2837 31.1704 46.1733C31.1704 48.0628 32.7076 49.5999 34.5971 49.5999C36.4866 49.5999 38.0238 48.0628 38.0238 46.1733C38.0238 44.2837 36.4866 42.7466 34.5971 42.7466ZM34.5971 47.8421C33.6768 47.8421 32.9282 47.0934 32.9282 46.1733C32.9282 45.2531 33.6769 44.5044 34.5971 44.5044C35.5172 44.5044 36.266 45.2531 36.266 46.1733C36.266 47.0934 35.5172 47.8421 34.5971 47.8421Z" fill="#FF2C2C"/>
<path d="M43.7914 42.7466C41.9019 42.7466 40.3647 44.2837 40.3647 46.1733C40.3647 48.0628 41.9019 49.5999 43.7914 49.5999C45.681 49.5999 47.2181 48.0628 47.2181 46.1733C47.2181 44.2837 45.681 42.7466 43.7914 42.7466ZM43.7914 47.8421C42.8712 47.8421 42.1226 47.0934 42.1226 46.1733C42.1226 45.2531 42.8713 44.5044 43.7914 44.5044C44.7116 44.5044 45.4603 45.2531 45.4603 46.1733C45.4603 47.0934 44.7116 47.8421 43.7914 47.8421Z" fill="#FF2C2C"/>
<path d="M16.2087 42.7466C14.3191 42.7466 12.782 44.2837 12.782 46.1733C12.782 48.0628 14.3191 49.5999 16.2087 49.5999C18.0982 49.5999 19.6353 48.0628 19.6353 46.1733C19.6353 44.2837 18.0982 42.7466 16.2087 42.7466ZM16.2087 47.8421C15.2884 47.8421 14.5398 47.0934 14.5398 46.1733C14.5398 45.2531 15.2885 44.5044 16.2087 44.5044C17.1288 44.5044 17.8775 45.2531 17.8775 46.1733C17.8775 47.0934 17.1289 47.8421 16.2087 47.8421Z" fill="#FF2C2C"/>
<path d="M52.9855 42.7466C51.096 42.7466 49.5588 44.2837 49.5588 46.1733C49.5588 48.0628 51.096 49.5999 52.9855 49.5999C54.875 49.5999 56.4122 48.0628 56.4122 46.1733C56.4122 44.2837 54.875 42.7466 52.9855 42.7466ZM52.9855 47.8421C52.0652 47.8421 51.3167 47.0934 51.3167 46.1733C51.3167 45.2531 52.0654 44.5044 52.9855 44.5044C53.9057 44.5044 54.6544 45.2531 54.6544 46.1733C54.6544 47.0934 53.9057 47.8421 52.9855 47.8421Z" fill="#FF2C2C"/>
</g>
<defs>
<clipPath id="clip0_73_1589">
<rect width="60" height="60" fill="white"/>
</clipPath>
</defs>
</svg>
